HIERARCHY
ROOT Hips
{
	OFFSET -14.64140 90.27770 -84.91600
	CHANNELS 6 Xposition Yposition Zposition Zrotation Xrotation Yrotation
	JOINT Spine
	{
		OFFSET 0.00000 13.20850 -1.60436
		CHANNELS 3 Zrotation Xrotation Yrotation
		JOINT Spine1
		{
			OFFSET 0.00000 8.61716 0.00000
			CHANNELS 3 Zrotation Xrotation Yrotation
			JOINT Spine2
			{
				OFFSET 0.00000 8.61717 0.00000
				CHANNELS 3 Zrotation Xrotation Yrotation
				JOINT Spine3
				{
					OFFSET 0.00000 8.61717 0.00000
					CHANNELS 3 Zrotation Xrotation Yrotation
					JOINT Neck
					{
						OFFSET 0.00000 11.07920 1.10792
						CHANNELS 3 Zrotation Xrotation Yrotation
						JOINT Neck1
						{
							OFFSET 0.00000 7.08032 0.00000
							CHANNELS 3 Zrotation Xrotation Yrotation
							JOINT Head
							{
								OFFSET 0.00000 7.08031 0.00000
								CHANNELS 3 Zrotation Xrotation Yrotation
								End site
								{
									OFFSET 0.00000 0.00000 0.00000
								}
							}
						}
					}
					JOINT RightShoulder
					{
						OFFSET -0.01000 7.91373 5.19711
						CHANNELS 3 Zrotation Xrotation Yrotation
						JOINT RightArm
						{
							OFFSET -18.41580 0.00000 0.00000
							CHANNELS 3 Zrotation Xrotation Yrotation
							JOINT RightForeArm
							{
								OFFSET -29.11090 0.00000 0.00000
								CHANNELS 3 Zrotation Xrotation Yrotation
								JOINT RightHand
								{
									OFFSET -24.65040 0.00000 0.00000
									CHANNELS 3 Zrotation Xrotation Yrotation
									JOINT RightHandThumb1
									{
										OFFSET -5.35114 -0.85590 3.97906
										CHANNELS 3 Zrotation Xrotation Yrotation
										JOINT RightHandThumb2
										{
											OFFSET -4.52789 0.00000 0.00000
											CHANNELS 3 Zrotation Xrotation Yrotation
											JOINT RightHandThumb3
											{
												OFFSET -2.46976 0.00000 0.00000
												CHANNELS 3 Zrotation Xrotation Yrotation
												End site
												{
													OFFSET 0.00000 0.00000 0.00000
												}
											}
										}
									}
									JOINT RightHandIndex1
									{
										OFFSET -14.26970 0.00000 2.88139
										CHANNELS 3 Zrotation Xrotation Yrotation
										JOINT RightHandIndex2
										{
											OFFSET -5.48836 0.00000 0.00000
											CHANNELS 3 Zrotation Xrotation Yrotation
											JOINT RightHandIndex3
											{
												OFFSET -3.01859 0.00000 0.00000
												CHANNELS 3 Zrotation Xrotation Yrotation
												End site
												{
													OFFSET 0.00000 0.00000 0.00000
												}
											}
										}
									}
									JOINT RightHandMiddle1
									{
										OFFSET -14.26970 0.00000 -0.09147
										CHANNELS 3 Zrotation Xrotation Yrotation
										JOINT RightHandMiddle2
										{
											OFFSET -6.17441 0.00000 0.00000
											CHANNELS 3 Zrotation Xrotation Yrotation
											JOINT RightHandMiddle3
											{
												OFFSET -3.56743 0.00000 0.00000
												CHANNELS 3 Zrotation Xrotation Yrotation
												End site
												{
													OFFSET 0.00000 0.00000 0.00000
												}
											}
										}
									}
									JOINT RightHandRing1
									{
										OFFSET -12.69180 0.00000 -3.06433
										CHANNELS 3 Zrotation Xrotation Yrotation
										JOINT RightHandRing2
										{
											OFFSET -5.62556 0.00000 0.00000
											CHANNELS 3 Zrotation Xrotation Yrotation
											JOINT RightHandRing3
											{
												OFFSET -3.56744 0.00000 0.00000
												CHANNELS 3 Zrotation Xrotation Yrotation
												End site
												{
													OFFSET 0.00000 0.00000 0.00000
												}
											}
										}
									}
									JOINT RightHandPinky1
									{
										OFFSET -11.11390 0.00000 -6.03719
										CHANNELS 3 Zrotation Xrotation Yrotation
										JOINT RightHandPinky2
										{
											OFFSET -4.52789 0.00000 0.00000
											CHANNELS 3 Zrotation Xrotation Yrotation
											JOINT RightHandPinky3
											{
												OFFSET -2.46976 0.00000 0.00000
												CHANNELS 3 Zrotation Xrotation Yrotation
												End site
												{
													OFFSET 0.00000 0.00000 0.00000
												}
											}
										}
									}
								}
							}
						}
					}
					JOINT LeftShoulder
					{
						OFFSET 0.01000 7.91373 5.19711
						CHANNELS 3 Zrotation Xrotation Yrotation
						JOINT LeftArm
						{
							OFFSET 18.41580 0.00000 0.00000
							CHANNELS 3 Zrotation Xrotation Yrotation
							JOINT LeftForeArm
							{
								OFFSET 29.11090 0.00000 0.00000
								CHANNELS 3 Zrotation Xrotation Yrotation
								JOINT LeftHand
								{
									OFFSET 24.65040 0.00000 0.00000
									CHANNELS 3 Zrotation Xrotation Yrotation
									JOINT LeftHandThumb1
									{
										OFFSET 5.35114 -0.85590 3.97906
										CHANNELS 3 Zrotation Xrotation Yrotation
										JOINT LeftHandThumb2
										{
											OFFSET 4.52789 0.00000 0.00000
											CHANNELS 3 Zrotation Xrotation Yrotation
											JOINT LeftHandThumb3
											{
												OFFSET 2.46977 0.00000 0.00000
												CHANNELS 3 Zrotation Xrotation Yrotation
												End site
												{
													OFFSET 0.00000 0.00000 0.00000
												}
											}
										}
									}
									JOINT LeftHandIndex1
									{
										OFFSET 14.26970 0.00000 2.88139
										CHANNELS 3 Zrotation Xrotation Yrotation
										JOINT LeftHandIndex2
										{
											OFFSET 5.48836 0.00000 0.00000
											CHANNELS 3 Zrotation Xrotation Yrotation
											JOINT LeftHandIndex3
											{
												OFFSET 3.01859 0.00000 0.00000
												CHANNELS 3 Zrotation Xrotation Yrotation
												End site
												{
													OFFSET 0.00000 0.00000 0.00000
												}
											}
										}
									}
									JOINT LeftHandMiddle1
									{
										OFFSET 14.26970 0.00000 -0.09147
										CHANNELS 3 Zrotation Xrotation Yrotation
										JOINT LeftHandMiddle2
										{
											OFFSET 6.17440 0.00000 0.00000
											CHANNELS 3 Zrotation Xrotation Yrotation
											JOINT LeftHandMiddle3
											{
												OFFSET 3.56744 0.00000 0.00000
												CHANNELS 3 Zrotation Xrotation Yrotation
												End site
												{
													OFFSET 0.00000 0.00000 0.00000
												}
											}
										}
									}
									JOINT LeftHandRing1
									{
										OFFSET 12.69180 0.00000 -3.06433
										CHANNELS 3 Zrotation Xrotation Yrotation
										JOINT LeftHandRing2
										{
											OFFSET 5.62556 0.00000 0.00000
											CHANNELS 3 Zrotation Xrotation Yrotation
											JOINT LeftHandRing3
											{
												OFFSET 3.56744 0.00000 0.00000
												CHANNELS 3 Zrotation Xrotation Yrotation
												End site
												{
													OFFSET 0.00000 0.00000 0.00000
												}
											}
										}
									}
									JOINT LeftHandPinky1
									{
										OFFSET 11.11390 0.00000 -6.03719
										CHANNELS 3 Zrotation Xrotation Yrotation
										JOINT LeftHandPinky2
										{
											OFFSET 4.52789 0.00000 0.00000
											CHANNELS 3 Zrotation Xrotation Yrotation
											JOINT LeftHandPinky3
											{
												OFFSET 2.46976 0.00000 0.00000
												CHANNELS 3 Zrotation Xrotation Yrotation
												End site
												{
													OFFSET 0.00000 0.00000 0.00000
												}
											}
										}
									}
								}
							}
						}
					}
					JOINT pCube4
					{
						OFFSET 0.00000 10.91090 1.10792
						CHANNELS 3 Zrotation Xrotation Yrotation
						End site
						{
							OFFSET 0.00000 0.00000 0.00000
						}
					}
				}
			}
		}
	}
	JOINT RightUpLeg
	{
		OFFSET -9.98441 0.00000 0.00000
		CHANNELS 3 Zrotation Xrotation Yrotation
		JOINT RightLeg
		{
			OFFSET 0.00000 -42.11790 0.00000
			CHANNELS 3 Zrotation Xrotation Yrotation
			JOINT RightFoot
			{
				OFFSET 0.00000 -45.00020 -0.00001
				CHANNELS 3 Zrotation Xrotation Yrotation
				JOINT RightForeFoot
				{
					OFFSET 0.00000 -3.74820 0.00000
					CHANNELS 3 Zrotation Xrotation Yrotation
					JOINT RightToeBase
					{
						OFFSET 0.00000 0.06325 14.43120
						CHANNELS 3 Zrotation Xrotation Yrotation
						End site
						{
							OFFSET 0.00000 0.00000 0.00000
						}
					}
				}
			}
		}
	}
	JOINT LeftUpLeg
	{
		OFFSET 9.98441 0.00000 0.00000
		CHANNELS 3 Zrotation Xrotation Yrotation
		JOINT LeftLeg
		{
			OFFSET 0.00000 -42.11800 0.00000
			CHANNELS 3 Zrotation Xrotation Yrotation
			JOINT LeftFoot
			{
				OFFSET 0.00000 -45.00070 0.00000
				CHANNELS 3 Zrotation Xrotation Yrotation
				JOINT LeftForeFoot
				{
					OFFSET 0.00000 -3.74824 0.00000
					CHANNELS 3 Zrotation Xrotation Yrotation
					JOINT LeftToeBase
					{
						OFFSET 0.00000 0.06325 14.43110
						CHANNELS 3 Zrotation Xrotation Yrotation
						End site
						{
							OFFSET 0.00000 0.00000 0.00000
						}
					}
				}
			}
		}
	}
}
MOTION
Frames: 4
Frame Time: 0.050000
-0.01932861410196679 0.00022707958941235002 -0.01617507063832901 0.03044234560366766 0.010691180158988997 -0.015744885841204908 -1.7849588491587867 1.3893129020645056 -0.8345971442457095 -1.0293127183859394 3.7969252906772892 0.3865868209607884 -1.1398015489934792 -1.840642622904919 -0.6076187330277306 0.005981084244315501 0.4212139293493725 -0.7402603874534741 -0.25782191431846735 14.094346879831798 0.0314172880668853 -0.17334595523095478 0.30256911484818116 -2.142693756250929 -0.03203749434368433 -14.798939834659786 -0.1291776312182924 -6.250149709112325 2.1404390247167973 -13.674087889751512 66.72081067106238 14.802702043004702 18.75399098881119 0.6107277338993988 -2.9700602620475203 93.70735255246339 8.86917118423541 -0.16157232651339432 -0.5692204584511245 4.493778361212674 -0.1616955805917173 -1.5762522093780378 0.012806110672872552 -0.03162571618959998 -56.230108721752586 0.03345826416709962 -0.041247334444422544 -56.24050422806438 -38.758338581838764 0.01244695905943961 -0.048718342349114645 -0.003988916217351688 0.024349900928694088 0.004100530567472606 0.04082927313385713 0.0016982292663117687 0.004529600692997443 -36.733830891311165 -0.03807208516016879 0.0005673021385340926 -0.0485239118270171 0.02057292402860286 0.037580118312943965 0.005279090826933088 0.02720911728218806 0.013025714005897013 -19.799953275370388 -0.04714772119059263 -0.02073207459599778 0.04832958278268215 -0.043843798853094196 0.03549016435888229 -0.0024459188727099248 0.006610762435942697 0.0290891339322876 24.02055559695608 0.021042290208887485 -0.005581403822204287 28.840183898660385 0.04344401558514067 0.012299835495851893 28.900350124389227 0.028510682111204676 -0.02961767693624377 7.9390256114420925 1.7044593091143552 12.704811546965646 -66.02866211517728 23.02587148590838 -19.733643191728277 8.129154141485225 -11.930811292400632 -91.0267151053722 -1.6283503812312847 0.9151594217530012 -1.3262993343567753 -0.44437860052899647 0.11636993671543872 -8.142495695303102 -0.023296037179342175 -0.02086954998556684 44.58933884131751 -0.004071233708241432 0.00286095373982735 44.549393163266316 12.462079002070636 0.019998392906671995 -0.04663786656397867 0.0007337981526872592 0.02630932659130416 -0.03614322567232702 -0.002002678568694349 0.010920063405020181 0.03280401554564786 11.128620708425599 0.040681278747640714 0.04181469022161054 0.005195873079339109 0.0038059580875182157 0.014479975608956669 -0.0464905715076034 -0.034871385528509734 -0.01555512223673627 4.806183781189366 0.033277344878452804 -0.02139116532658961 0.03368842864272782 0.0074769227212836305 0.0005544068983687645 0.025227769731916695 -0.01931998461525135 0.042213683672545535 -5.625296822616474 0.03118097192754446 0.012350553459205642 -6.7634617277476075 0.001063006962157231 0.022193646326680427 -6.684913080349567 -0.017631419548510677 -0.029299583688092132 -0.04579325736126518 0.026154165626089052 -0.024144155471846857 8.09344109141763 3.450834386929157 -19.171730061040623 0.01665271406887776 10.383786094774859 -0.012307057381950526 -5.57655037583329 -15.705151346667455 3.1776719886436444 -0.02755490505459292 -0.000148671848723968 -0.00557054871958041 0.010093137025494317 4.730804507388823 0.002310764872788007 12.507412969785111 -8.26177405102273 6.910178465435198 -0.004450545169742499 46.41864927328828 0.004477494398471057 -4.3739141300555975 -14.725837436331394 -3.845078928563441 -0.0024142099055777847 0.024789687443014376 -0.019682156618220117 0.024462322749992365 -10.760788726191079 0.022035771230497537 
0.010575933054348638 0.01587748833769431 -0.02372604747983525 0.02635399867049709 0.0326225052472625 -0.027242692252634412 -1.8709121574236138 1.4281202489551195 -0.8705237754144057 -1.0239999614160264 3.7936703554677047 0.3989175729692127 -1.1746086071928066 -1.906419168612017 -0.7144432082660497 -0.06913646177691868 0.3950130907964913 -0.769736490517349 -0.3362705985514349 14.20494752242316 0.11586899568513924 -0.11203847174602997 0.3645941348631188 -1.7775636063757831 -0.13247782836559735 -14.628730528502892 -0.12971985321674495 -6.436441305707393 2.240666757557309 -13.509712112919273 66.02580591295423 12.389916104181204 19.885686460137663 1.7275904792466519 -2.4986141218638527 92.99815215950117 9.038033451444088 -0.097390473412649 -0.40068260360759644 4.552548457038359 -0.15112195732912978 -1.6026118384154053 0.02587951489224178 0.024891818773849727 -56.25381269876079 -0.04632064249642465 -0.02153841714210633 -56.21391763165828 -38.75294499986173 0.0017869994584530345 0.014092105450970015 -0.032138431650967594 0.02231069488007095 0.016376482067241325 -0.006953278764710667 -0.03084963632159474 -0.03319257438623046 -36.64693067426862 0.03887360274558483 -0.029168276412079298 -0.049411100638830675 -0.030632853145015806 0.025227042860725017 -0.01850618477087582 0.018243638604390957 0.012173298280167007 -19.80710758192397 -0.02014793077195409 0.011044771680436048 0.006998797596475983 -0.02689906232721071 0.0169943711507826 0.018450820260986038 -0.04900933142535557 -0.026883768983659267 24.08897938043432 -0.01338906553807678 -0.007217498595939575 28.841140260687556 -0.004935671617091118 -0.044950677508140365 28.847687496826612 0.024249123003285467 -0.02845489192877219 8.374984864839096 1.8676680899457205 12.694461462352772 -65.21298042764872 21.09787091567955 -22.063594933128037 5.611818040103829 -10.259300873348064 -90.31456548507492 -1.9351873313132901 1.2021016609854283 -1.4109129287788957 -0.4720556569356184 0.05637863553808497 -8.085354344409792 0.03788788953727394 0.025903037698411287 44.56061483606828 0.03437874706552253 -0.005530231473168205 44.609269471459456 12.482122049199804 0.013557200616864556 -0.02244813383530578 -0.04207150491575097 -0.04491736338768245 -0.029763761427629536 0.00047507797639098046 0.013703005933829868 -0.029812150314679892 11.108250683565988 -0.031654556159335046 0.00506097180594626 0.0156532813230442 -0.02624883626845157 -0.010636635153314686 -0.03345970996511346 0.04165409492860205 0.019552427428647906 4.800102879470144 -0.007904027038751033 0.004903850337938171 -0.006287885174225194 -0.014621178438848421 0.0410218854476244 -0.03696385656014619 -0.02613376124047869 0.024266556395794215 -5.610176904411163 -0.020191249525691193 -0.004518989982873611 -6.708032116483952 -0.04652176996921784 0.010881570226822932 -6.713392785623037 0.016169224478226524 -0.020540269302840038 -0.006294794422860837 0.002882201909931641 0.017486303278413596 7.998388151409114 3.4540905343482557 -19.170098844978565 0.04154671292260625 10.34508094392739 0.04564280745546612 -5.607503716605985 -15.623900809018444 3.1825624888710315 -0.012637439804660634 -0.030734907037028327 -0.04184707747476144 -0.0046793585686522475 4.700167318314839 0.01926408590419994 12.442754531062553 -8.285816123110068 6.907221054814575 -0.02524635284191966 46.342165376046374 -0.03552906334195098 -4.316529508431616 -14.796072349868485 -3.806321296033382 -0.043916796759977825 0.0325742745739425 0.017317663270966645 -0.020344150285399484 -10.786893293726257 0.02814645006949386 
-0.02969721058215502 0.02512673571276068 -0.048687734777793715 -0.04032819089218838 0.03999113841413966 0.03472603044654446 -1.9822888287394813 1.433365674095572 -0.7884356960246385 -1.041544735195204 3.843343821140272 0.35906120379115647 -1.1307643843199746 -1.8691829635388302 -0.7994816017381599 -0.13219573502416676 0.3483590908015489 -0.7619025749220293 -0.32929432648712653 14.48555172225486 0.11027667468331664 -0.1604951941049247 0.4791205147194931 -1.574346050346644 -0.11654972641571208 -14.510347950813658 -0.07176098527467935 -6.798234065120496 2.3092740159094416 -13.51650585267841 65.24268651654712 10.009087024921858 21.319773953897073 2.176338580021352 -2.1952612968701146 92.66937187890221 9.177148665244484 -0.17143087694371337 -0.403825789021001 4.4870986832842075 -0.0933380960217943 -1.6199941062241947 0.02657388014315427 -0.007449526013400569 -56.22348643785773 -0.004893043365663464 -0.03536868974156121 -56.21779204121053 -38.75796654239584 0.02598162091833194 -0.0031024968505504566 -0.002135626749568771 -0.020982151297235883 -0.038452347188538565 0.02625349563357303 -0.04921612947066258 -0.016908847172225627 -36.65188236488371 -0.03328734834948432 0.006677395745381185 -0.037867166556612694 -0.021284965790190666 0.0019755776975964342 -0.0499182870429136 -0.01089573120032976 -0.001879504390646364 -19.785065995023317 0.01020632187209237 -0.02035517121929704 -0.013738638195857269 -0.01037808535300263 -0.038023744769919855 0.017730281871132965 0.047591222455101945 0.034872022523295645 24.042174809678798 0.0384667228104767 -0.0026259284441965697 28.898644988275286 0.01808021184903865 -0.01892883724783007 28.856891809532936 -0.035621091739090165 -0.038520626180678086 8.830754336917604 1.8983220616669074 12.570033530407798 -64.31521454324411 19.524547742704748 -24.720013333628852 3.8095610279066547 -8.880303891591884 -89.93428679532181 -2.4403997957205545 1.3879288225066195 -1.4147901538792027 -0.4502095772196815 0.04315695468813486 -8.15107602862211 -0.014125115153963658 0.002602131136874064 44.5911237222405 -0.04724401123357767 -0.011702167417167314 44.5528941948279 12.48619894150648 -0.04657965688461614 0.0020768302469211567 0.034702918516886436 0.009174067290200736 0.02707887191407101 -0.024815178159520255 0.006489424669724284 0.021550925603564516 11.111206431091068 0.017048277931621322 -0.04037031440538099 -0.014903752514836928 0.002386953733153714 0.003985371558229203 0.008346790068487304 0.03698324848351751 0.04817128190346787 4.753373157318716 0.03606018775050953 -0.03620456446012916 -0.017424538520695403 -0.0327311768565479 -0.0025815454704410353 -0.003118851958590799 -0.02480585330090566 -0.013494219447883019 -5.625312581673534 -0.04470547238680718 0.021905897108848365 -6.764928374412031 -0.02117399957273326 -0.03581709360997588 -6.688058488622449 0.02689872459953498 -0.02943830038915722 0.00230117269198745 0.009546828151295709 -0.016301886913870516 8.089903193769064 3.531933230374147 -19.193074094092662 0.035693932294219334 10.432049752286217 0.04108875331075015 -5.580568674861391 -15.70077950137127 3.164846220904107 -0.011013175106553707 -0.004236455599321719 0.023399507230360765 -0.016868173552328048 4.685211888906832 0.04076688664273717 12.477143795243407 -8.199807543221745 6.921265846162225 0.005543890990640043 46.40277616813701 -0.015040720222604356 -4.296500403425328 -14.72253389383346 -3.848169845881959 -0.03288310917238025 -0.008115584759313982 -0.022296678421458774 0.02393662445718025 -10.730802177111693 0.005650244514715323 
0.014950052655468693 -0.0020826343486829257 0.002357809114973884 -0.010112566907767425 0.04485062558539082 -0.019662510051457124 -2.1262551414891306 1.5017814327574126 -0.8014415678284794 -1.0230870131238705 3.85396713443242 0.3915939103528688 -1.2119246930535112 -1.8769584135989374 -0.9936994485982378 -0.09592823916744785 0.3160719565411203 -0.8139825583327707 -0.4498918639465964 14.74395791177314 0.21285688581350817 -0.1497936105212258 0.58878785618851 -1.3170941728539962 -0.22727015253006697 -14.401555145264975 -0.08614322634517575 -7.206146113842308 2.4333952009995667 -13.476949091273937 64.35285215301968 7.703735015854385 22.83550401394036 1.700952735630738 -2.165023232651856 92.94515003496032 8.864443436084647 -0.15313705083799006 -0.18818911303224337 4.559360524797403 -0.0928798677482239 -1.593363148472179 -0.012955819356635569 -0.04010735236841042 -56.28265907218931 -0.001248097004881143 -0.0038116230147805428 -56.203754837590154 -38.76494846235142 -0.02174272693830885 0.02476227574235381 0.013038123841929384 -0.017906730373306454 0.016050748642441205 0.014159054763595741 0.04400812826283251 -0.028427834132321625 -36.67975282672432 -0.014414395406758358 0.021217727242869907 0.017399618309551286 0.016306108525617518 0.00400821618555675 -0.0012972867633052893 -0.03361754117198462 -0.013792588371642907 -19.777768122922737 -0.03200511667327854 0.013836205988292431 -0.024411469811022418 0.0020273490331484457 -0.009985849884574493 0.020624233681909142 0.03292569302418081 0.021306416311969514 24.011914864849384 -0.015404632139340487 -0.012834962787297765 28.840909425057912 -0.01231933269938712 0.006157315293887642 28.828277006226717 0.02169565998701089 0.007770786026016118 9.40501284674739 2.0296018206092445 12.534715837911012 -63.211473843804455 18.051701751561875 -27.664482166911675 2.3686914738116602 -7.516528860618555 -90.40896587226293 -2.5584270241990352 1.5561466310110565 -1.5140678443753448 -0.47754903782571656 0.08204534826428199 -8.095303493755791 -0.001320717500743969 -0.04540502483583733 44.54433541041961 0.017441611073593516 0.019465351296893935 44.57033642618501 12.468350419631413 -0.030991978708187227 -0.03320332849334617 0.00903027149503586 0.04396599985314028 -0.015788641118720335 0.004436435494281785 0.018242400607301718 0.04899769242651767 11.102406250226709 -0.0004635268053812817 0.03201226562303057 -0.014412579367461913 -0.0021875310386474224 0.020325966439711005 -0.036240545908432835 -0.037362840181119426 -0.008498482689446765 4.763238482033292 0.04264875232426504 -0.042786050790276545 -0.0016535594582064983 -0.018264138009439934 -0.015453159925209318 -0.020091439533214055 0.04332019980813152 0.01660175299162926 -5.619798295329711 -0.009840082554437975 0.016417205163102164 -6.714245479956215 0.03362289610001482 -0.04809833162969976 -6.765246416940033 -0.025408529182093808 -0.0198837243584769 -0.026659410565058668 -0.03757644414793169 -0.018820595814799626 8.03610838484487 3.4622727639949806 -19.240925128648268 -0.0010715089211644642 10.409433365255776 0.0030729801266056404 -5.616999457368781 -15.707990510593348 3.2184493679705724 -0.019300602849291113 0.0157113542101594 -0.04987435204125453 -0.018275796170189373 4.669290614431885 -0.03857654620668088 12.433294467052372 -8.287775695657531 6.918931131957862 0.005751797142957406 46.404095742074595 -0.028467107292454923 -4.307571041205297 -14.71247637265557 -3.836856351975359 -0.027226321371315986 0.04677350850941616 -0.014498111984172578 0.03984390017463862 -10.742727651022728 -0.014713309723793325 
